<svg xmlns="http://www.w3.org/2000/svg" version="1.1" xmlns:xlink="http://www.w3.org/1999/xlink" xmlns:svgjs="http://svgjs.dev/svgjs" width="420" height="420" preserveAspectRatio="none" viewBox="0 0 420 420">
    <g mask="url(&quot;#SvgjsMask2360&quot;)" fill="none">
        <use xlink:href="#SvgjsG2370" transform="translate(0, 0)" fill="rgba(156, 163, 175, 1)"></use>
    </g>
    <defs>
        <mask id="SvgjsMask2360">
            <rect width="420" height="420" fill="#ffffff"></rect>
        </mask>
        <g id="SvgjsG2369">
            <path d="M2.77 6.62C5.22 4.41 13.73 2.95 13.73 2.95s-2.35 8.31-4.81 10.51c-1.67 1.5-4.55 2.07-6.62-0.22-2.07-2.3-1.2-5.11 0.47-6.62z" fill-rule="evenodd"></path>
        </g>
        <g id="SvgjsG2363">
            <path d="M2.25 12.8C-0.6 9.63-0.34 4.75 2.82 1.9 5.98-0.95 10.87-0.69 13.72 2.47S16.31 10.52 13.15 13.37c-3.16 2.85-8.05 2.59-10.9-0.57z m1.41-1.28c2.14 2.38 5.82 2.58 8.21 0.43 2.38-2.14 2.57-5.83 0.43-8.21-2.14-2.38-5.82-2.57-8.2-0.42-2.38 2.14-2.58 5.82-0.44 8.2z"></path>
            <path d="M7.25 8.34a0.57 0.57 0 0 1-0.34-0.44 0.58 0.58 0 0 1 0.12-0.46L10.36 4.44a0.58 0.58 0 0 1 0.78 0.86l-2.59 2.33 3.03 1.27a0.58 0.58 0 0 1 0.32 0.76c-0.12 0.3-0.47 0.43-0.76 0.31l-3.89-1.63z"></path>
        </g>
        <g id="SvgjsG2361">
            <path d="M3.86 4.36L2.18 2.49 3.17 1.6l1.68 1.87-0.99 0.89zM7.64 2.48L7.77-0.02l1.32 0.07-0.13 2.5-1.32-0.07z m-5.07 4.56l-0.07 1.32-2.5-0.13 0.07-1.32 2.5 0.13z m9.95-2.23l-0.89-0.99L13.49 2.14l0.89 0.99-1.86 1.68z m-9.03 6.34l0.89 0.99-1.87 1.68-0.89-0.99 1.87-1.68zM13.45 8.94l0.05-1.34 2.52 0.15-0.07 1.32-2.5-0.13z m-5.05 4.54l-0.15 2.52-1.32-0.07 0.14-2.5 1.34 0.05z m5.46-0.01l-0.99 0.89-1.68-1.86L12.18 11.61l1.68 1.86z"></path>
            <path d="M5.14 4.8a4.18 4.18 0 1 0 5.6 6.21 4.18 4.18 0 1 0-5.6-6.21"></path>
        </g>
        <g id="SvgjsG2365">
            <path d="M11.78 14.33c0.2 0.22 0.56 0.26 0.8 0.1 0 0 0.34-0.23 0.71-0.56s0.63-0.64 0.63-0.64c0.19-0.23 0.18-0.59-0.02-0.81l-1.02-1.13c-0.2-0.22-0.26-0.57-0.14-0.79s0.59-0.79 0.88-0.77l1.53 0.08c0.3 0.02 0.57-0.21 0.61-0.5l0.09-1.79c-0.01-0.3-0.26-0.55-0.55-0.57l-1.53-0.08c-0.29-0.01-0.59-0.22-0.65-0.45s-0.14-0.98 0.08-1.17L14.33 4.22c0.22-0.2 0.26-0.56 0.1-0.8 0 0-0.23-0.34-0.56-0.7s-0.64-0.63-0.64-0.64c-0.23-0.19-0.59-0.18-0.81 0.02l-1.13 1.02c-0.22 0.2-0.57 0.26-0.79 0.14s-0.79-0.59-0.77-0.89l0.08-1.52C9.82 0.56 9.6 0.28 9.31 0.24l-1.79-0.09c-0.3 0.01-0.55 0.26-0.57 0.55l-0.08 1.52c-0.02 0.3-0.22 0.59-0.45 0.66s-0.98 0.14-1.18-0.08L4.22 1.67c-0.2-0.22-0.56-0.26-0.8-0.1 0 0-0.34 0.23-0.7 0.56s-0.63 0.64-0.64 0.64c-0.19 0.23-0.18 0.59 0.02 0.81l1.02 1.14c0.2 0.22 0.26 0.57 0.14 0.78-0.12 0.21-0.59 0.79-0.88 0.77l-1.53-0.08C0.56 6.18 0.28 6.4 0.24 6.7l-0.09 1.79c0.01 0.3 0.26 0.55 0.55 0.56l1.53 0.08c0.29 0.02 0.59 0.22 0.65 0.45s0.14 0.98-0.08 1.18l-1.13 1.02c-0.22 0.2-0.26 0.56-0.1 0.8 0 0 0.23 0.34 0.56 0.71s0.64 0.63 0.64 0.63c0.23 0.19 0.59 0.18 0.81-0.02l1.13-1.02c0.22-0.2 0.57-0.26 0.79-0.14 0.21 0.12 0.79 0.59 0.77 0.89l-0.08 1.52c-0.02 0.3 0.21 0.57 0.51 0.61l1.79 0.1c0.3-0.01 0.55-0.26 0.56-0.56l0.08-1.52c0.02-0.3 0.22-0.59 0.45-0.66 0.23-0.07 0.98-0.14 1.18 0.08l1.02 1.13zM5.85 9.94c-1.07-1.19-0.97-3.01 0.22-4.09 1.19-1.07 3.01-0.97 4.08 0.22S11.12 9.08 9.94 10.15 6.92 11.12 5.85 9.94z"></path>
        </g>
        <g id="SvgjsG2368">
            <path d="M13.15 3.37C10.2 0.09 5.81-0.76 3.34 1.46c-1.21 1.09-1.73 2.71-1.6 4.47l-2.68 2.42 4.19 1.83c0.28 0.42 0.6 0.84 0.96 1.23 2.95 3.27 7.34 4.13 9.8 1.91C16.48 11.09 16.09 6.64 13.15 3.37z" fill-rule="evenodd"></path>
        </g>
        <g id="SvgjsG2366">
            <path d="M8.47 14.11c0.9 0.99 2.43 1.08 3.42 0.18 1-0.9 1.08-2.43 0.18-3.42-0.9-1-2.43-1.08-3.43-0.18-1 0.9-1.08 2.43-0.17 3.42m-6.48-7.19c0.9 0.99 2.43 1.08 3.42 0.18 1-0.9 1.08-2.44 0.18-3.43-0.9-1-2.43-1.08-3.43-0.18-1 0.9-1.07 2.43-0.17 3.43M10.03 8.63L7.61 5.94l-1.8 1.62L8.24 10.25 10.03 8.63zM13.55 8.7l-5.62-6.24-1.17 1.05 5.62 6.24L13.55 8.7z m-0.52 1.77L14.91 12.55l-4.91 4.41L-0.71 5.07l4.91-4.41 1.92 2.13 1.06-0.95c0.4-0.36 1.01-0.33 1.36 0.07L14.16 8.15c0.35 0.39 0.32 1.01-0.08 1.36l-1.05 0.96z"></path>
        </g>
        <g id="SvgjsG2367">
            <path d="M4.17 10.7S4.61 8.9 2.82 6.91C1.18 5.09-0.2 4.62-0.2 4.62L7.15-2s1.38 0.47 3.04 2.28C11.99 2.25 11.53 4.08 11.53 4.08L4.17 10.7z m0.73 0.81s1.84-0.24 3.63 1.75c1.64 1.82 1.96 3.24 1.97 3.24L17.85 9.88s-0.32-1.42-1.95-3.26c-1.78-2-3.64-1.73-3.64-1.73l-7.36 6.62z"></path>
            <path d="M2.26 13.18S2.91 10.43 1.12 8.44c-1.64-1.82-3.02-2.29-3.02-2.29l0.88-0.79s1.38 0.47 3.03 2.28c1.8 1.98 1.13 4.75 1.13 4.75L2.26 13.18z m0 0s2.8-0.36 4.6 1.63c1.64 1.82 1.96 3.24 1.96 3.25l0.88-0.79s-0.32-1.42-1.95-3.26c-1.78-2-4.61-1.62-4.61-1.62l-0.88 0.79z"></path>
        </g>
        <g id="SvgjsG2362">
            <path d="M-0.42 4.81L11.26 5.06l-0.97 11.65z"></path>
            <path d="M4.96 2.45L13.95 2.65l-0.75 8.95z m2.81 3.87l1.87 2.08-6.65 5.99L1.12 12.32z"></path>
        </g>
        <g id="SvgjsG2364">
            <path d="M12.63 2.87a0.56 0.56 0 0 1 0.05-0.79C12.91 1.87 13.26 1.89 13.47 2.12a0.56 0.56 0 0 1-0.04 0.79c-0.23 0.21-0.58 0.19-0.8-0.04z m1.01 1.11c0.21 0.23 0.56 0.25 0.79 0.04 0.23-0.21 0.25-0.57 0.04-0.79A0.56 0.56 0 0 0 13.68 3.19c-0.23 0.21-0.25 0.56-0.04 0.79z m-6.96 9.27c0.62 0.49 1.74 0.53 2.48-0.14l5.39-4.86c0.76-0.68 0.88-1.95 0.1-2.82L11.3 1.71c-0.78-0.87-2.06-0.88-2.82-0.2l-5.39 4.86c-0.74 0.66-0.82 1.79-0.4 2.45L-1.48 9.43l0.91 1 2.94-0.4L5.44 13.44 4.74 16.33l0.9 1L6.68 13.25zM11.54 3.09c0.14-0.12 0.35-0.11 0.47 0.02l1.32 1.47c0.12 0.14 0.11 0.35-0.03 0.47l-0.42 0.38a0.33 0.33 0 0 1-0.47-0.02L11.09 3.94c-0.13-0.14-0.11-0.35 0.02-0.47l0.43-0.38zM3.77 8.43a0.9 0.9 0 0 1 0.07-1.26c0.36-0.33 0.93-0.3 1.25 0.07a0.89 0.89 0 0 1-0.06 1.26c-0.37 0.33-0.93 0.3-1.26-0.07z m3.58-3.07c-0.37-0.42-0.39-1.02 0.07-1.44l0.97-0.87c0.41-0.36 0.99-0.42 1.44 0.08l3.26 3.61c0.44 0.49 0.33 1.07-0.08 1.44l-0.97 0.87c-0.47 0.42-1.06 0.34-1.43-0.07l-3.26-3.62zM7.24 10.94c0.36-0.33 0.93-0.3 1.25 0.07a0.89 0.89 0 0 1-0.06 1.26c-0.37 0.33-0.93 0.3-1.27-0.07a0.89 0.89 0 0 1 0.07-1.26z"></path>
        </g>
        <g id="SvgjsG2370">
            <use xlink:href="#SvgjsG2361" transform="translate(0, 0) scale(1.8)" fill="rgba(156, 163, 175, 1)"></use>
            <use xlink:href="#SvgjsG2362" transform="translate(0, 64.8) scale(1.8)" fill="rgba(156, 163, 175, 1)"></use>
            <use xlink:href="#SvgjsG2363" transform="translate(0, 129.6) scale(1.8)" fill="rgba(156, 163, 175, 1)"></use>
            <use xlink:href="#SvgjsG2364" transform="translate(0, 194.39999999999998) scale(1.8)" fill="rgba(156, 163, 175, 1)"></use>
            <use xlink:href="#SvgjsG2361" transform="translate(0, 259.2) scale(1.8)" fill="rgba(156, 163, 175, 1)"></use>
            <use xlink:href="#SvgjsG2365" transform="translate(0, 324) scale(1.8)" fill="rgba(156, 163, 175, 1)"></use>
            <use xlink:href="#SvgjsG2361" transform="translate(0, 388.79999999999995) scale(1.8)" fill="rgba(156, 163, 175, 1)"></use>
            <use xlink:href="#SvgjsG2366" transform="translate(64.8, 0) scale(1.8)" fill="rgba(156, 163, 175, 1)"></use>
            <use xlink:href="#SvgjsG2363" transform="translate(64.8, 64.8) scale(1.8)" fill="rgba(156, 163, 175, 1)"></use>
            <use xlink:href="#SvgjsG2365" transform="translate(64.8, 129.6) scale(1.8)" fill="rgba(156, 163, 175, 1)"></use>
            <use xlink:href="#SvgjsG2367" transform="translate(64.8, 194.39999999999998) scale(1.8)" fill="rgba(156, 163, 175, 1)"></use>
            <use xlink:href="#SvgjsG2367" transform="translate(64.8, 259.2) scale(1.8)" fill="rgba(156, 163, 175, 1)"></use>
            <use xlink:href="#SvgjsG2368" transform="translate(64.8, 324) scale(1.8)" fill="rgba(156, 163, 175, 1)"></use>
            <use xlink:href="#SvgjsG2368" transform="translate(64.8, 388.79999999999995) scale(1.8)" fill="rgba(156, 163, 175, 1)"></use>
            <use xlink:href="#SvgjsG2366" transform="translate(129.6, 0) scale(1.8)" fill="rgba(156, 163, 175, 1)"></use>
            <use xlink:href="#SvgjsG2369" transform="translate(129.6, 64.8) scale(1.8)" fill="rgba(156, 163, 175, 1)"></use>
            <use xlink:href="#SvgjsG2367" transform="translate(129.6, 129.6) scale(1.8)" fill="rgba(156, 163, 175, 1)"></use>
            <use xlink:href="#SvgjsG2367" transform="translate(129.6, 194.39999999999998) scale(1.8)" fill="rgba(156, 163, 175, 1)"></use>
            <use xlink:href="#SvgjsG2369" transform="translate(129.6, 259.2) scale(1.8)" fill="rgba(156, 163, 175, 1)"></use>
            <use xlink:href="#SvgjsG2369" transform="translate(129.6, 324) scale(1.8)" fill="rgba(156, 163, 175, 1)"></use>
            <use xlink:href="#SvgjsG2366" transform="translate(129.6, 388.79999999999995) scale(1.8)" fill="rgba(156, 163, 175, 1)"></use>
            <use xlink:href="#SvgjsG2368" transform="translate(194.39999999999998, 0) scale(1.8)" fill="rgba(156, 163, 175, 1)"></use>
            <use xlink:href="#SvgjsG2367" transform="translate(194.39999999999998, 64.8) scale(1.8)" fill="rgba(156, 163, 175, 1)"></use>
            <use xlink:href="#SvgjsG2364" transform="translate(194.39999999999998, 129.6) scale(1.8)" fill="rgba(156, 163, 175, 1)"></use>
            <use xlink:href="#SvgjsG2361" transform="translate(194.39999999999998, 194.39999999999998) scale(1.8)" fill="rgba(156, 163, 175, 1)"></use>
            <use xlink:href="#SvgjsG2367" transform="translate(194.39999999999998, 259.2) scale(1.8)" fill="rgba(156, 163, 175, 1)"></use>
            <use xlink:href="#SvgjsG2363" transform="translate(194.39999999999998, 324) scale(1.8)" fill="rgba(156, 163, 175, 1)"></use>
            <use xlink:href="#SvgjsG2369" transform="translate(194.39999999999998, 388.79999999999995) scale(1.8)" fill="rgba(156, 163, 175, 1)"></use>
            <use xlink:href="#SvgjsG2364" transform="translate(259.2, 0) scale(1.8)" fill="rgba(156, 163, 175, 1)"></use>
            <use xlink:href="#SvgjsG2368" transform="translate(259.2, 64.8) scale(1.8)" fill="rgba(156, 163, 175, 1)"></use>
            <use xlink:href="#SvgjsG2362" transform="translate(259.2, 129.6) scale(1.8)" fill="rgba(156, 163, 175, 1)"></use>
            <use xlink:href="#SvgjsG2362" transform="translate(259.2, 194.39999999999998) scale(1.8)" fill="rgba(156, 163, 175, 1)"></use>
            <use xlink:href="#SvgjsG2362" transform="translate(259.2, 259.2) scale(1.8)" fill="rgba(156, 163, 175, 1)"></use>
            <use xlink:href="#SvgjsG2361" transform="translate(259.2, 324) scale(1.8)" fill="rgba(156, 163, 175, 1)"></use>
            <use xlink:href="#SvgjsG2368" transform="translate(259.2, 388.79999999999995) scale(1.8)" fill="rgba(156, 163, 175, 1)"></use>
            <use xlink:href="#SvgjsG2368" transform="translate(324, 0) scale(1.8)" fill="rgba(156, 163, 175, 1)"></use>
            <use xlink:href="#SvgjsG2367" transform="translate(324, 64.8) scale(1.8)" fill="rgba(156, 163, 175, 1)"></use>
            <use xlink:href="#SvgjsG2364" transform="translate(324, 129.6) scale(1.8)" fill="rgba(156, 163, 175, 1)"></use>
            <use xlink:href="#SvgjsG2365" transform="translate(324, 194.39999999999998) scale(1.8)" fill="rgba(156, 163, 175, 1)"></use>
            <use xlink:href="#SvgjsG2369" transform="translate(324, 259.2) scale(1.8)" fill="rgba(156, 163, 175, 1)"></use>
            <use xlink:href="#SvgjsG2364" transform="translate(324, 324) scale(1.8)" fill="rgba(156, 163, 175, 1)"></use>
            <use xlink:href="#SvgjsG2362" transform="translate(324, 388.79999999999995) scale(1.8)" fill="rgba(156, 163, 175, 1)"></use>
            <use xlink:href="#SvgjsG2369" transform="translate(388.79999999999995, 0) scale(1.8)" fill="rgba(156, 163, 175, 1)"></use>
            <use xlink:href="#SvgjsG2368" transform="translate(388.79999999999995, 64.8) scale(1.8)" fill="rgba(156, 163, 175, 1)"></use>
            <use xlink:href="#SvgjsG2364" transform="translate(388.79999999999995, 129.6) scale(1.8)" fill="rgba(156, 163, 175, 1)"></use>
            <use xlink:href="#SvgjsG2363" transform="translate(388.79999999999995, 194.39999999999998) scale(1.8)" fill="rgba(156, 163, 175, 1)"></use>
            <use xlink:href="#SvgjsG2363" transform="translate(388.79999999999995, 259.2) scale(1.8)" fill="rgba(156, 163, 175, 1)"></use>
            <use xlink:href="#SvgjsG2366" transform="translate(388.79999999999995, 324) scale(1.8)" fill="rgba(156, 163, 175, 1)"></use>
            <use xlink:href="#SvgjsG2364" transform="translate(388.79999999999995, 388.79999999999995) scale(1.8)" fill="rgba(156, 163, 175, 1)"></use>
        </g>
    </defs>
</svg>